# xmcd CD database file
#
# Track frame offsets:
#	150
#	15053
#	41140
#	65910
#	84000
#	96350
#	110978
#	128734
#	141011
#
# Disc length: 2156 seconds
#
# Revision: 0
# Processed by: cddbd v1.5.2PL0 Copyright (c) Steve Scherf et al.
# Submitted via: CDex 1.70beta2
#
DISCID=74086a09
DTITLE=Bob Wilson - Barkindji Man - I Am What I Am
DYEAR=2005
DGENRE=Country
TTITLE0=The Old Tin Shack
TTITLE1=I Am What I Am
TTITLE2=This Road
TTITLE3=Moonbird People
TTITLE4=Walkabout
TTITLE5=Dream Catcher
TTITLE6=Future Lover
TTITLE7=Song With A Moral
TTITLE8=My Last Ride
EXTD=YEAR: 2005
EXTT0=
EXTT1=
EXTT2=
EXTT3=
EXTT4=
EXTT5=
EXTT6=
EXTT7=
EXTT8=
PLAYORDER=
